<svg width="68" height="66" viewBox="0 0 68 66" fill="none" xmlns="http://www.w3.org/2000/svg">
<g clip-path="url(#clip0_5028_155)">
<path fill-rule="evenodd" clip-rule="evenodd" d="M-1576 10C-1576 4.47715 -1571.52 0 -1566 0H334C339.523 0 344 4.47715 344 10V87.9907C344 87.9958 343.996 88 343.991 88C343.986 88 343.982 87.996 343.981 87.991C343.491 75.6349 333.319 65.7684 320.842 65.7684H59.4519C54.6375 65.7684 50.608 62.2884 48.9479 57.7693C41.9243 38.6501 23.5551 25.0105 2 25.0105H-1025C-1046.56 25.0105 -1064.92 38.6501 -1071.95 57.7693C-1073.61 62.2884 -1077.64 65.7684 -1082.45 65.7684H-1552.84C-1565.32 65.7684 -1575.49 75.6349 -1575.98 87.991C-1575.98 87.996 -1575.99 88 -1575.99 88C-1576 88 -1576 87.9958 -1576 87.9907V10Z" fill="#7027E2"/>
</g>
<defs>
<clipPath id="clip0_5028_155">
<rect width="68" height="66" fill="white"/>
</clipPath>
</defs>
</svg>
