<svg width="68" height="66" viewBox="0 0 68 66" fill="none" xmlns="http://www.w3.org/2000/svg">
<g clip-path="url(#clip0_5028_155)">
<path fill-rule="evenodd" clip-rule="evenodd" d="M-488 10C-488 4.47715 -483.523 0 -478 0H1422C1427.52 0 1432 4.47715 1432 10V87.9907C1432 87.9958 1432 88 1431.99 88C1431.99 88 1431.98 87.996 1431.98 87.991C1431.49 75.6349 1421.32 65.7684 1408.84 65.7684H1147.45C1142.64 65.7684 1138.61 62.2884 1136.95 57.7693C1129.92 38.6501 1111.56 25.0105 1090 25.0105H63C41.4449 25.0105 23.0757 38.6501 16.0522 57.7693C14.392 62.2884 10.3625 65.7684 5.54813 65.7684H-464.842C-477.319 65.7684 -487.491 75.6349 -487.981 87.991C-487.982 87.996 -487.986 88 -487.991 88C-487.996 88 -488 87.9958 -488 87.9907V10Z" fill="#7027E2"/>
</g>
<defs>
<clipPath id="clip0_5028_155">
<rect width="68" height="66" fill="white"/>
</clipPath>
</defs>
</svg>
