<svg width="1920" height="20" fill="none" xmlns="http://www.w3.org/2000/svg">
<g clip-path="url(#clip0_5028_155)">
<path fill-rule="evenodd" clip-rule="evenodd" d="M0 -56C0 -61.5228 4.47711 -66 9.99996 -66H1910C1915.52 -66 1920 -61.5228 1920 -56V21.9907C1920 21.9958 1920 22 1919.99 22C1919.99 22 1919.98 21.996 1919.98 21.991C1919.49 9.6349 1909.32 -0.231583 1896.84 -0.231583H1635.45C1630.64 -0.231583 1626.61 -3.71158 1624.95 -8.23071C1617.92 -27.3499 1599.56 -40.9895 1578 -40.9895H551C529.445 -40.9895 511.076 -27.3499 504.052 -8.23072C502.392 -3.71159 498.363 -0.231583 493.548 -0.231583H23.1579C10.6814 -0.231583 0.509328 9.6349 0.0185417 21.991C0.018344 21.996 0.014252 22 0.00927265 22C0.00415151 22 0 21.9958 0 21.9907V-56Z" fill="#7027E2"/>
</g>
<defs>
<clipPath id="clip0_5028_155">
<rect width="1920" height="20" fill="white"/>
</clipPath>
</defs>
</svg>
