<svg width="1148" height="66" fill="none" xmlns="http://www.w3.org/2000/svg">
<g clip-path="url(#clip0_5028_155)">
<path fill-rule="evenodd" clip-rule="evenodd" d="M-491 10C-491 4.47715 -486.523 0 -481 0H1419C1424.52 0 1429 4.47715 1429 10V87.9907C1429 87.9958 1429 88 1428.99 88C1428.99 88 1428.98 87.996 1428.98 87.991C1428.49 75.6349 1418.32 65.7684 1405.84 65.7684H1144.45C1139.64 65.7684 1135.61 62.2884 1133.95 57.7693C1126.92 38.6501 1108.56 25.0105 1087 25.0105H60C38.4449 25.0105 20.0757 38.6501 13.0522 57.7693C11.392 62.2884 7.36252 65.7684 2.54813 65.7684H-467.842C-480.319 65.7684 -490.491 75.6349 -490.981 87.991C-490.982 87.996 -490.986 88 -490.991 88C-490.996 88 -491 87.9958 -491 87.9907V10Z" fill="#7027E2"/>
</g>
<defs>
<clipPath id="clip0_5028_155">
<rect width="1148" height="66" fill="white"/>
</clipPath>
</defs>
</svg>
