<svg width="1147" height="88" viewBox="0 0 1147 88" fill="none" xmlns="http://www.w3.org/2000/svg">
<g clip-path="url(#clip0_5028_155)">
<path fill-rule="evenodd" clip-rule="evenodd" d="M-493 10C-493 4.47715 -488.523 0 -483 0H1417C1422.52 0 1427 4.47715 1427 10V87.9907C1427 87.9958 1427 88 1426.99 88V88C1426.99 88 1426.98 87.996 1426.98 87.991C1426.49 75.6349 1416.32 65.7684 1403.84 65.7684H1142.45C1137.64 65.7684 1133.61 62.2884 1131.95 57.7693C1124.92 38.6501 1106.56 25.0105 1085 25.0105H58C36.445 25.0105 18.0757 38.6501 11.0522 57.7693C9.39203 62.2884 5.36252 65.7684 0.548116 65.7684H-469.842C-482.319 65.7684 -492.491 75.6349 -492.981 87.991C-492.982 87.996 -492.986 88 -492.991 88V88C-492.996 88 -493 87.9959 -493 87.9907V10Z" fill="#7027E2"/>
</g>
<defs>
<clipPath id="clip0_5028_155">
<rect width="1147" height="88" fill="white"/>
</clipPath>
</defs>
</svg>
